<?xml version="1.0" encoding="UTF-8" standalone="no"?>
<!-- Creator: CorelDRAW X8 -->

<svg
   xmlns:dc="http://purl.org/dc/elements/1.1/"
   xmlns:cc="http://creativecommons.org/ns#"
   xmlns:rdf="http://www.w3.org/1999/02/22-rdf-syntax-ns#"
   xmlns:svg="http://www.w3.org/2000/svg"
   xmlns="http://www.w3.org/2000/svg"
   xmlns:sodipodi="http://sodipodi.sourceforge.net/DTD/sodipodi-0.dtd"
   xmlns:inkscape="http://www.inkscape.org/namespaces/inkscape"
   xml:space="preserve"
   width="700mm"
   height="700mm"
   version="1.1"
   style="clip-rule:evenodd;fill-rule:evenodd;image-rendering:optimizeQuality;shape-rendering:geometricPrecision;text-rendering:geometricPrecision"
   viewBox="0 0 70000 70000"
   id="svg10"
   sodipodi:docname="raizen-logo.svg"
   inkscape:export-filename="G:\Users\suitedoalex\sites\svg\raizen-logo-0.png"
   inkscape:export-xdpi="148.63"
   inkscape:export-ydpi="148.63"
   inkscape:version="0.92.4 (5da689c313, 2019-01-14)"><metadata
   id="metadata14"><rdf:RDF><cc:Work
       rdf:about=""><dc:format>image/svg+xml</dc:format><dc:type
         rdf:resource="http://purl.org/dc/dcmitype/StillImage" /><dc:title></dc:title></cc:Work></rdf:RDF></metadata><sodipodi:namedview
   pagecolor="#ffffff"
   bordercolor="#666666"
   borderopacity="1"
   objecttolerance="10"
   gridtolerance="10"
   guidetolerance="10"
   inkscape:pageopacity="0"
   inkscape:pageshadow="2"
   inkscape:window-width="1600"
   inkscape:window-height="837"
   id="namedview12"
   showgrid="false"
   inkscape:zoom="0.097636899"
   inkscape:cx="-1376.8687"
   inkscape:cy="279.24383"
   inkscape:window-x="-8"
   inkscape:window-y="-8"
   inkscape:window-maximized="1"
   inkscape:current-layer="svg10" />
 <defs
   id="defs4">
  <style
   type="text/css"
   id="style2">
   <![CDATA[
    .fil0 {fill:#82008F}
   ]]>
  </style>
 </defs>
 <g
   id="Camada_x0020_1"
   transform="matrix(3.7766506,0,0,3.7766506,4786.7965,19893.399)"
   inkscape:export-xdpi="17.446268"
   inkscape:export-ydpi="17.446268">
  <metadata
   id="CorelCorpID_0Corel-Layer" />
  <path
   class="fil0"
   d="m 6654,820 -1072,488 v 539 l 1072,-334 z m 7810,1236 c -334,0 -604,115 -861,359 v -289 h -751 v 3063 h 771 V 3565 c 0,-424 186,-777 706,-777 482,0 617,353 617,777 v 1624 h 764 V 3327 c 0,-700 -417,-1271 -1246,-1271 z m -4239,1233 c 109,-379 398,-559 751,-559 366,0 636,160 732,559 z m 745,-1233 c -912,0 -1535,712 -1535,1586 0,880 629,1586 1535,1586 732,0 1233,-405 1426,-995 h -797 c -109,186 -282,289 -584,289 -456,0 -719,-232 -796,-623 h 2260 c 7,-77 13,-135 13,-212 0,-1060 -681,-1631 -1522,-1631 z M 8003,6467 c -411,0 -687,-301 -687,-700 0,-398 276,-700 687,-700 405,0 687,302 687,700 0,399 -282,700 -687,700 z M 8253,3751 9339,2788 V 2126 H 6731 v 713 h 1503 l -963,841 642,745 c -835,52 -1349,642 -1349,1349 0,796 649,1406 1445,1406 790,0 1452,-610 1452,-1406 0,-424 -116,-739 -379,-1047 z M 1041,2428 V 2126 H 290 v 3063 h 771 V 3571 c 0,-424 186,-751 751,-751 h 231 v -732 h -167 c -334,0 -578,96 -835,340 z m 4560,2761 h 777 V 2017 l -777,193 z M 3642,4483 c -468,0 -796,-340 -796,-841 0,-501 328,-848 796,-848 469,0 797,347 797,848 0,501 -328,841 -797,841 z m 13,-2427 c -892,0 -1580,706 -1580,1586 0,918 604,1586 1497,1586 302,0 642,-122 886,-379 v 340 h 751 V 3571 c 0,-841 -655,-1515 -1554,-1515 z"
   id="path7"
   inkscape:connector-curvature="0"
   style="fill:#82008f" />
 </g>
</svg>